<svg width="205" height="859" viewBox="0 0 205 859" fill="none" xmlns="http://www.w3.org/2000/svg">
<g clip-path="url(#clip0_41_294)">
<path d="M132.177 0H129.865V859H132.177V0Z" fill="#B3BB78"/>
<path d="M128.698 277.832C129.114 277.045 128.108 276.281 127.565 276.778C127.253 276.836 126.964 277.056 126.906 277.45C126.883 277.647 126.86 277.832 126.837 278.029C120.121 290.532 112.978 302.132 116.249 316.684C115.636 321.037 116.076 325.401 117.162 329.627C115.105 325.262 113.036 320.851 110.828 316.522C110.805 316.394 110.759 316.267 110.655 316.151C110.643 316.14 110.632 316.128 110.632 316.117C108.308 311.567 105.823 307.11 103.026 302.896C100.934 299.758 98.5758 296.911 96.0444 294.248C96.0907 294.04 96.056 293.82 95.9057 293.6C92.623 289.004 89.9645 283.308 89.167 277.693C89.1439 277.566 89.1092 277.462 89.0514 277.38C89.4675 270.759 88.7509 264.206 86.52 257.885C83.4454 249.11 77.4811 241.77 74.0944 233.134C74.0828 233.111 74.0713 233.111 74.0713 233.088C74.0482 233.053 74.025 233.007 74.0019 232.972C73.7823 232.659 73.4124 232.625 73.1003 232.798C72.7998 232.925 72.5571 233.215 72.638 233.632C74.2678 242.615 75.6664 251.692 78.1631 260.49C80.0356 267.1 82.1624 275.586 87.5141 280.217C87.6875 280.367 87.8955 280.414 88.1036 280.425C88.8549 283.701 90.1726 286.931 91.8139 289.93C89.6987 287.996 87.5256 286.144 85.2717 284.419C84.7631 283.991 84.2545 283.574 83.7344 283.146C81.203 281.085 78.6716 279.024 76.1518 276.964C70.9504 272.067 67.136 266.105 64.8127 259.251C65.9686 252.189 62.6512 242.615 59.5882 236.48C55.9819 229.267 50.3296 223.294 43.2673 219.45C43.0014 219.184 42.5969 219.23 42.3079 219.45C42.2848 219.462 42.2732 219.473 42.2501 219.485C42.2154 219.52 42.1807 219.554 42.1461 219.601C42.0998 219.647 42.0652 219.705 42.0305 219.763V219.774C41.9033 220.017 41.8918 220.295 42.0767 220.515C45.8795 229.568 49.4281 238.807 54.0053 247.512C55.5195 250.395 59.4842 260.189 63.5875 260.501C64.9861 264.403 66.8471 268.003 69.1588 271.28C65.2173 268.073 61.2873 264.866 57.3573 261.659C44.7583 242.638 22.4615 236.26 1.56337 230.61C1.52869 230.599 1.49402 230.61 1.44778 230.599C1.42466 230.599 1.38999 230.599 1.36687 230.599C1.2744 230.599 1.19349 230.599 1.12414 230.622C1.11258 230.622 1.11258 230.622 1.10102 230.633C1.00855 230.668 0.939198 230.703 0.869846 230.761C0.858287 230.772 0.835169 230.795 0.823611 230.807C0.777376 230.853 0.7427 230.888 0.708023 230.934C0.546201 231.154 0.488407 231.432 0.603995 231.687C0.615553 231.71 0.615553 231.722 0.627112 231.733C0.65023 231.768 0.673347 231.803 0.708023 231.837C0.754258 231.895 0.823611 231.953 0.892963 231.999L0.904522 232.011C7.16935 235.519 11.3074 241.446 16.6013 246.146C20.1614 249.307 24.0335 252.097 28.1716 254.458C37.0371 259.506 46.8273 262.423 56.9528 263.326C62.894 268.165 68.8352 273.016 74.7764 277.855C73.3431 277.149 71.8635 276.524 70.3609 275.945C70.28 275.841 70.176 275.737 70.0257 275.667C53.9591 268.177 36.1124 266.718 18.8321 270.226C18.4853 270.295 18.312 270.527 18.2542 270.793C18.127 271.094 18.1733 271.43 18.5316 271.627L18.5431 271.638C18.5547 271.638 18.5547 271.65 18.5547 271.65C25.4437 275.088 32.7373 277.346 40.4238 278.052C49.8673 278.92 59.4726 275.366 68.6965 277.01C74.3487 279.036 79.4461 281.976 84.1505 285.542C91.2475 291.446 97.836 297.513 102.864 305.512C104.286 307.781 105.684 310.097 107.037 312.447C104.829 310.386 102.448 308.534 99.801 306.982C95.0504 304.204 89.4559 303.313 84.8209 300.395C84.6822 300.314 84.5435 300.279 84.4163 300.279C75.701 288.969 57.9584 283.945 44.5272 283.076C44.1688 283.053 43.9261 283.238 43.8105 283.493C43.406 283.782 43.2441 284.442 43.799 284.766C51.185 289.224 58.1665 294.387 65.8761 298.277C71.2625 300.986 78.8335 304.517 84.9943 302.907C85.1792 302.861 85.3526 302.722 85.4682 302.56C89.1901 304.493 93.3512 305.42 97.1194 307.318C94.2528 307.075 91.3862 307.515 88.6468 308.615C83.9887 306.577 76.8223 308.372 72.5108 309.888C63.7724 312.979 56.6869 319.208 50.0638 325.482L50.0522 325.494C49.9366 325.528 49.8095 325.552 49.6939 325.586C48.7345 325.864 49.0351 327.392 49.9944 327.114C58.8369 324.568 68.0376 322.982 76.5448 319.381C79.9893 317.923 89.3635 314.172 89.8952 309.761C93.3743 308.522 97.0385 308.441 100.633 309.541C100.749 309.576 100.864 309.587 100.957 309.576C104.112 311.729 106.921 314.334 109.487 317.216C109.58 317.321 109.672 317.378 109.776 317.425C117.983 332.463 124.86 348.833 129.946 364.739C130.247 365.688 131.784 365.387 131.472 364.438C128.455 355.026 124.71 345.927 120.584 336.966C120.896 336.77 121.104 336.399 120.93 335.971C118.595 330.414 117.151 324.417 117.648 318.386C117.752 318.328 117.844 318.258 117.914 318.142C121.971 312.204 124.953 305.732 126.455 298.67C127.866 292.037 127.507 285.23 128.351 278.527C128.455 278.272 128.582 278.052 128.698 277.832ZM86.3466 310.641C87.306 314.797 70.8117 319.879 67.818 320.77C62.998 322.206 58.0971 323.317 53.2424 324.602C57.9584 320.238 62.9171 316.07 68.6965 313.188C71.17 311.937 85.3873 306.496 86.3466 310.641ZM81.4342 301.692C80.1165 302.711 72.2681 299.434 70.7886 298.821C67.3441 297.397 64.0614 295.614 60.8712 293.715C56.109 290.879 51.5318 287.753 46.8274 284.813C53.2078 285.438 59.4495 286.885 65.3791 289.374C67.3903 290.219 84.9365 298.971 81.4342 301.692ZM62.1889 255.604C60.3048 258.684 58.7328 252.733 57.6579 250.939C56.8488 249.573 56.0859 248.184 55.3461 246.783C53.6817 243.622 52.179 240.369 50.7342 237.093C48.5149 232.057 46.4112 226.963 44.2844 221.881C49.6592 225.238 54.0978 229.904 57.2302 235.472C59.5766 239.605 65.0208 250.974 62.1889 255.604ZM64.6278 275.077C58.5248 275.007 52.6183 276.64 46.3419 276.697C37.696 276.778 29.2928 274.845 21.4675 271.28C36.0315 268.733 50.8498 269.798 64.6278 275.077ZM52.3755 261.219C42.2963 259.737 32.5986 255.894 24.1954 250.14C17.2832 245.417 12.2552 238.355 5.68984 233.331C15.4338 235.982 25.2356 238.841 34.2168 243.507C38.9096 245.949 43.406 248.878 47.3706 252.398C49.3471 254.157 51.3121 256.056 52.9188 258.163C54.8953 260.71 56.3171 261.798 52.3755 261.219ZM83.4916 254.539C86.809 261.983 87.9764 269.89 87.3985 277.948C82.2549 272.402 80.1974 262.747 78.4983 255.755C77.169 250.302 76.175 244.792 75.1925 239.27C77.8857 244.41 81.1221 249.226 83.4916 254.539ZM126.421 282.034C126.086 286.85 126.097 291.689 125.288 296.448C124.109 303.37 121.381 309.819 117.625 315.688C115.082 303.116 120.595 292.766 126.421 282.034Z" fill="#B3BB78"/>
<path d="M103.222 252.097C105.627 251.981 114.7 250.395 115.949 247.235C121.277 249.33 125.958 252.433 129.981 256.566C130.513 257.11 131.368 256.288 130.836 255.744C130.547 255.454 130.247 255.176 129.958 254.887C129.935 254.817 129.888 254.736 129.831 254.667C129.426 254.227 129.021 253.787 128.617 253.347C124.733 247.408 125.369 239.93 123.196 233.308C123.311 233.169 123.416 233.018 123.52 232.845C125.854 228.955 121.566 221.685 119.301 218.605C117.682 216.406 115.741 214.461 113.163 213.442C109.95 212.18 106.517 212.689 103.523 210.721C103.084 210.432 102.679 210.825 102.668 211.242C102.54 211.451 102.529 211.717 102.737 211.937C103.176 212.412 103.592 212.909 103.997 213.419C104.032 213.5 104.089 213.581 104.182 213.65C108.528 219.334 110.366 226.674 115.371 231.837C116.977 233.493 120.087 235.403 122.271 234.13C122.421 234.558 122.572 234.998 122.687 235.449C124.051 240.37 124.04 245.568 125.75 250.256C119.543 243.704 112.955 237.568 105.973 231.849C108.505 228.99 103.777 224.069 101.882 222.206C99.593 219.948 96.8998 218.177 93.9523 216.915C89.5484 215.039 84.8556 214.38 81.2839 210.907C81.0528 210.687 80.7753 210.71 80.5673 210.837C80.0703 210.432 79.4345 210.999 79.6773 211.578C82.486 218.42 85.919 225.435 92.2532 229.684C95.0966 231.594 101.512 234.651 105.026 232.601C111.66 238.031 117.937 243.831 123.866 250.001C121.427 248.404 118.815 247.084 116.041 246.019C115.348 242.326 107.719 239.849 104.852 239.455C102.09 239.085 99.304 239.386 96.7033 240.37C93.5824 241.55 90.8661 243.576 87.595 243.924C86.7974 243.808 85.9999 243.692 85.2023 243.565C84.6938 243.484 84.1043 244.132 84.6244 244.549C89.3519 248.415 96.9229 252.386 103.222 252.097ZM112.735 214.634C115.833 215.908 117.89 218.397 119.59 221.21C120.607 222.877 123.311 227.392 122.676 229.406C122.387 229.626 122.109 229.835 121.82 230.055C118.087 222.842 111.429 217.679 105.072 212.851C105.037 212.805 105.002 212.759 104.968 212.724C107.488 213.616 110.192 213.592 112.735 214.634ZM118.26 232.752C117.578 232.173 116.896 231.583 116.226 231.004C115.186 229.927 114.296 228.619 113.498 227.357C112.365 225.574 111.429 223.664 110.47 221.789C109.464 219.821 108.459 217.899 107.326 216.058C112.631 220.203 117.833 224.833 120.861 230.784C119.994 231.444 119.127 232.092 118.26 232.752ZM90.1842 216.811C92.7733 217.679 95.2931 218.663 97.5702 220.191C99.2809 221.337 104.69 225.378 104.748 227.751C104.436 228.422 104.112 229.094 103.8 229.765C96.5993 225.655 90.3922 220.237 84.4163 214.53C86.2195 215.456 88.1498 216.128 90.1842 216.811ZM101.465 231.791C99.9975 231.999 97.8129 231.108 96.4259 230.529C93.9292 229.51 91.6984 227.994 89.7565 226.118C86.1964 222.68 83.8615 218.258 81.885 213.754C88.485 220.145 95.27 226.292 103.292 230.853C103.141 231.178 102.991 231.502 102.829 231.826C102.379 231.803 101.928 231.791 101.465 231.791ZM111.695 248.578C109.036 249.677 106.17 250.812 103.246 250.916C97.9747 251.101 91.8486 248.334 87.3292 245.139C87.4332 245.128 87.5256 245.128 87.6297 245.116C96.2872 246.355 105.002 246.818 113.752 246.494C113.671 247.269 113.07 248.01 111.695 248.578ZM94.4262 242.72C99.7086 240.103 105.476 239.594 110.736 242.696C111.961 243.414 113.013 244.364 113.487 245.313C105.904 245.579 98.3446 245.255 90.8314 244.34C92.0336 243.9 93.2125 243.322 94.4262 242.72Z" fill="#B3BB78"/>
<path d="M103.222 634.132C105.627 634.028 114.7 632.43 115.949 629.27C121.277 631.354 125.958 634.468 129.981 638.601C130.513 639.145 131.368 638.323 130.836 637.767C130.547 637.478 130.247 637.2 129.958 636.91C129.935 636.841 129.888 636.76 129.831 636.69C129.426 636.25 129.021 635.811 128.617 635.371C124.733 629.432 125.369 621.953 123.196 615.331C123.311 615.192 123.416 615.042 123.52 614.868C125.854 610.978 121.566 603.708 119.301 600.617C117.682 598.417 115.741 596.473 113.163 595.454C109.95 594.192 106.517 594.701 103.523 592.733C103.084 592.444 102.679 592.837 102.668 593.254C102.54 593.463 102.529 593.729 102.737 593.949C103.176 594.423 103.592 594.921 103.997 595.431C104.032 595.512 104.089 595.593 104.182 595.662C108.528 601.346 110.366 608.686 115.371 613.849C116.977 615.505 120.087 617.415 122.271 616.142C122.421 616.581 122.572 617.01 122.687 617.461C124.051 622.381 124.04 627.58 125.75 632.268C119.543 625.716 112.955 619.58 105.973 613.861C108.505 611.013 103.777 606.081 101.882 604.217C99.593 601.96 96.8998 600.189 93.9523 598.927C89.5484 597.051 84.8556 596.392 81.2839 592.918C81.0528 592.699 80.7753 592.722 80.5673 592.849C80.0703 592.444 79.4345 593.011 79.6773 593.59C82.486 600.432 85.919 607.447 92.2532 611.696C95.0966 613.606 101.512 616.663 105.026 614.613C111.66 620.043 117.937 625.843 123.866 632.013C121.427 630.416 118.815 629.096 116.041 628.031C115.348 624.338 107.719 621.861 104.852 621.467C102.09 621.096 99.304 621.397 96.7033 622.381C93.5824 623.562 90.8661 625.588 87.595 625.936C86.7974 625.82 85.9999 625.704 85.2023 625.577C84.6938 625.496 84.1043 626.144 84.6244 626.561C89.3519 630.451 96.9229 634.421 103.222 634.132ZM112.735 596.669C115.833 597.943 117.89 600.432 119.59 603.245C120.607 604.912 123.311 609.427 122.676 611.441C122.387 611.661 122.109 611.87 121.82 612.09C118.087 604.877 111.429 599.714 105.072 594.887C105.037 594.84 105.002 594.794 104.968 594.759C107.488 595.651 110.192 595.627 112.735 596.669ZM118.26 614.787C117.578 614.208 116.896 613.618 116.226 613.039C115.186 611.962 114.296 610.654 113.498 609.392C112.365 607.609 111.429 605.699 110.47 603.824C109.464 601.856 108.459 599.934 107.326 598.093C112.631 602.238 117.833 606.869 120.861 612.819C119.994 613.479 119.127 614.127 118.26 614.787ZM90.1842 598.846C92.7733 599.714 95.2931 600.71 97.5702 602.226C99.2809 603.372 104.69 607.413 104.748 609.786C104.436 610.457 104.112 611.129 103.8 611.8C96.5993 607.69 90.3922 602.273 84.4163 596.565C86.2195 597.491 88.1498 598.163 90.1842 598.846ZM101.465 613.826C99.9975 614.023 97.8129 613.143 96.4259 612.576C93.9292 611.546 91.6984 610.041 89.7565 608.165C86.1964 604.727 83.8615 600.305 81.885 595.801C88.485 602.192 95.27 608.339 103.292 612.9C103.141 613.224 102.991 613.548 102.829 613.873C102.379 613.838 101.928 613.838 101.465 613.826ZM111.695 630.613C109.036 631.712 106.17 632.847 103.246 632.951C97.9747 633.136 91.8486 630.37 87.3292 627.174C87.4332 627.163 87.5256 627.163 87.6297 627.151C96.2872 628.39 105.002 628.853 113.752 628.529C113.671 629.304 113.07 630.045 111.695 630.613ZM94.4262 624.755C99.7086 622.138 105.476 621.629 110.736 624.732C111.961 625.449 113.013 626.399 113.487 627.348C105.904 627.614 98.3446 627.29 90.8314 626.375C92.0336 625.936 93.2125 625.357 94.4262 624.755Z" fill="#B3BB78"/>
<path d="M105.557 411.151C105.187 411.046 104.806 411.301 104.783 411.683C104.159 424.198 109.071 435.647 115.267 446.252C115.267 446.263 115.278 446.275 115.278 446.286C115.278 446.448 115.336 446.599 115.44 446.715C116.353 449.146 117.289 451.565 118.272 453.962C118.26 453.95 118.249 453.939 118.237 453.927C114.388 449.285 109.938 445.163 104.69 441.864C104.702 441.632 104.586 441.401 104.297 441.297C104.193 441.262 104.078 441.239 103.974 441.204C104.02 441.077 104.02 440.926 103.939 440.776C99.6739 432.232 92.6347 425.355 83.7922 421.662C79.1225 419.718 74.1407 418.872 69.1242 418.49C66.9512 418.328 59.3455 416.719 57.6926 418.907C54.7105 422.866 70.3841 432.244 73.0542 433.702C77.458 436.099 82.1971 437.893 87.0865 439.004C92.4728 440.22 97.9979 440.533 103.28 442.223C103.315 442.327 103.384 442.431 103.511 442.512C107.719 445.082 111.406 448.185 114.677 451.658C113.302 451.021 111.845 450.581 110.343 450.35C110.181 450.141 109.915 450.026 109.614 450.153C109.545 450.176 109.487 450.211 109.418 450.234C108.875 450.188 108.331 450.165 107.788 450.165C107.696 450.118 107.603 450.072 107.511 450.037C107.441 449.979 107.349 449.945 107.256 449.921C96.5184 445.048 84.6707 448.196 73.3431 449.655C72.927 449.713 72.6958 450.35 73.031 450.639C83.7691 459.715 97.7436 456.381 109.557 451.461C112.435 451.774 115.116 452.897 117.37 454.737C118.283 455.837 119.162 456.972 120.006 458.129C120.064 458.268 120.121 458.407 120.179 458.546C120.26 458.731 120.387 458.824 120.526 458.859C124.467 464.404 127.715 470.505 130.559 476.733C130.871 477.428 131.923 476.884 131.611 476.189C128.64 469.671 125.219 463.304 121.046 457.551C119.439 453.811 117.948 450.037 116.515 446.217C119.139 440.255 119.035 433.806 116.885 427.659C115.452 423.549 113.244 419.764 110.793 416.187C109.36 414.08 108.112 411.903 105.557 411.151ZM102.61 440.799C102.483 440.764 102.367 440.718 102.24 440.683C102.321 440.637 102.402 440.567 102.448 440.486C102.506 440.59 102.564 440.695 102.61 440.799ZM71.4937 419.903C76.0941 420.412 80.498 421.442 84.7054 423.399C92.0683 426.826 97.9517 432.475 101.905 439.491C88.6353 432.139 74.9036 425.703 60.7788 420.181C63.0212 418.687 69.783 419.706 71.4937 419.903ZM81.7232 436.249C77.5505 434.802 73.5627 432.834 69.864 430.414C67.0552 428.574 61.7151 425.587 60.2933 422.403C60.0737 421.917 60.0275 421.512 60.0853 421.165C74.1407 426.64 87.7915 433.031 101.003 440.336C94.6343 438.727 87.988 438.414 81.7232 436.249ZM80.9488 449.875C83.9194 449.493 86.9015 449.053 89.8837 448.729C95.1313 448.15 99.9167 448.393 104.644 450.118C95.455 450.917 86.2774 450.998 77.0766 450.396C77.146 450.384 77.2037 450.361 77.2731 450.35C78.4405 450.049 79.7582 450.026 80.9488 449.875ZM84.6129 454.807C82.4861 454.425 77.9435 453.522 76.5218 451.785C76.4409 451.681 76.36 451.6 76.2906 451.519C86.5316 452.237 96.7496 452.086 106.979 451.079C107.037 451.114 107.106 451.137 107.164 451.172C102.564 453.024 97.8361 454.587 92.8889 455.096C90.1148 455.397 87.3523 455.305 84.6129 454.807ZM109.291 431.48C108.285 428.817 107.453 426.085 106.863 423.306C106.436 421.292 104.991 416.302 105.812 414.3C105.812 414.357 105.812 414.415 105.835 414.485C109.094 424.302 112.365 434.131 115.625 443.948C115.521 443.797 115.371 443.739 115.209 443.751C112.966 439.792 110.909 435.74 109.291 431.48ZM115.729 444.121C115.81 444.237 115.914 444.307 116.03 444.341C115.995 444.446 115.96 444.538 115.925 444.642C115.856 444.469 115.787 444.295 115.729 444.121ZM115.209 426.525C117.324 431.792 118.018 437.465 116.503 442.848C113.336 433.309 110.158 423.758 106.991 414.218C106.806 413.674 106.089 413.686 105.869 414.045C105.661 413.2 105.962 413.038 106.771 413.582C107.534 413.617 108.054 414.01 108.343 414.739C109.476 415.816 110.331 417.564 111.186 418.896C112.735 421.327 114.145 423.862 115.209 426.525Z" fill="#B3BB78"/>
<path d="M151.018 688.254C148.567 691.831 146.36 695.616 144.926 699.726C142.788 705.873 142.684 712.322 145.296 718.284C143.875 722.093 142.372 725.878 140.765 729.617C136.593 735.371 133.171 741.738 130.201 748.256C129.888 748.951 130.929 749.506 131.252 748.8C134.096 742.572 137.344 736.459 141.285 730.926C141.424 730.891 141.551 730.798 141.632 730.613C141.69 730.474 141.748 730.335 141.805 730.196C142.649 729.039 143.528 727.904 144.441 726.804C146.695 724.952 149.388 723.841 152.255 723.528C164.068 728.448 178.042 731.782 188.78 722.706C189.115 722.417 188.896 721.78 188.468 721.722C177.141 720.263 165.293 717.115 154.555 721.988C154.462 722.012 154.37 722.046 154.3 722.104C154.208 722.15 154.116 722.197 154.023 722.231C153.48 722.231 152.925 722.255 152.393 722.301C152.324 722.278 152.266 722.243 152.197 722.22C151.896 722.093 151.63 722.22 151.469 722.417C149.954 722.648 148.51 723.088 147.134 723.725C150.405 720.252 154.081 717.138 158.3 714.579C158.427 714.498 158.496 714.394 158.531 714.29C163.813 712.588 169.327 712.287 174.713 711.071C179.603 709.972 184.342 708.177 188.745 705.769C191.416 704.311 207.089 694.933 204.107 690.974C202.454 688.774 194.848 690.395 192.675 690.557C187.659 690.939 182.677 691.784 178.007 693.729C169.153 697.422 162.126 704.299 157.861 712.843C157.78 712.993 157.78 713.144 157.826 713.271C157.722 713.306 157.606 713.329 157.502 713.375C157.213 713.468 157.109 713.711 157.109 713.942C151.862 717.242 147.4 721.352 143.562 726.006C143.551 726.017 143.539 726.029 143.528 726.04C144.51 723.632 145.458 721.224 146.36 718.793C146.464 718.677 146.521 718.527 146.521 718.365C146.521 718.353 146.533 718.342 146.533 718.33C152.728 707.737 157.641 696.276 157.017 683.773C156.994 683.38 156.612 683.125 156.242 683.241C153.711 683.958 152.463 686.135 151.018 688.254ZM159.375 712.542C159.433 712.623 159.502 712.681 159.583 712.738C159.456 712.773 159.34 712.82 159.213 712.854C159.271 712.75 159.317 712.646 159.375 712.542ZM201.044 692.224C186.919 697.746 173.199 704.183 159.918 711.534C163.871 704.519 169.755 698.869 177.117 695.443C181.313 693.486 185.729 692.456 190.329 691.947C192.051 691.761 198.802 690.743 201.044 692.224ZM160.831 712.391C174.043 705.098 187.694 698.696 201.749 693.22C201.807 693.567 201.749 693.972 201.541 694.459C200.119 697.642 194.779 700.629 191.97 702.47C188.272 704.889 184.284 706.857 180.111 708.305C173.846 710.469 167.2 710.782 160.831 712.391ZM184.55 722.405C184.619 722.428 184.677 722.44 184.746 722.451C175.545 723.053 166.356 722.972 157.179 722.174C161.906 720.449 166.691 720.206 171.939 720.784C174.921 721.109 177.892 721.548 180.874 721.93C182.065 722.081 183.394 722.104 184.55 722.405ZM168.945 727.163C163.998 726.654 159.259 725.091 154.67 723.239C154.728 723.204 154.797 723.181 154.855 723.146C165.073 724.153 175.303 724.292 185.532 723.586C185.451 723.667 185.382 723.748 185.301 723.852C183.879 725.589 179.337 726.492 177.21 726.874C174.47 727.36 171.719 727.453 168.945 727.163ZM146.614 715.795C146.452 715.783 146.302 715.841 146.198 715.992C149.457 706.174 152.728 696.346 155.988 686.529C156.011 686.459 156.011 686.401 156.011 686.343C156.832 688.346 155.399 693.336 154.959 695.35C154.37 698.129 153.538 700.861 152.532 703.523C150.925 707.795 148.856 711.847 146.614 715.795ZM145.909 716.698C145.874 716.594 145.839 716.501 145.805 716.397C145.92 716.362 146.036 716.281 146.105 716.177C146.036 716.35 145.967 716.524 145.909 716.698ZM150.636 690.962C151.48 689.631 152.347 687.883 153.48 686.806C153.769 686.077 154.289 685.683 155.052 685.649C155.872 685.105 156.161 685.267 155.953 686.112C155.734 685.753 155.017 685.741 154.832 686.285C151.665 695.825 148.486 705.376 145.319 714.915C143.805 709.532 144.499 703.859 146.614 698.592C147.689 695.917 149.099 693.382 150.636 690.962Z" fill="#B3BB78"/>
<path d="M135.113 470.054C132.304 477.868 131.969 486.585 130.663 494.759C130.547 495.511 131.703 495.638 131.842 494.886C133.321 486.678 134.801 478.47 136.269 470.262C137.228 467.657 138.476 465.168 140.152 462.841C141.713 460.676 143.516 458.708 145.493 456.891C145.585 457.099 145.793 457.273 146.094 457.227C151.815 456.555 157.202 454.61 161.86 451.16C167.882 446.703 171.615 440.533 178.666 437.314C179.163 437.083 179.117 436.18 178.493 436.18C164.565 436.215 151.677 443.624 144.741 455.745C144.684 455.837 144.66 455.942 144.66 456.034C142.638 457.886 140.788 459.901 139.193 462.112C138.419 463.189 137.737 464.312 137.124 465.458C138.072 460.167 139.031 454.888 139.979 449.597C139.979 449.597 139.979 449.597 139.991 449.597C144.094 443.276 147.4 436.481 149.215 429.141C150.174 425.275 150.717 421.327 150.763 417.344C150.833 412.505 150.139 407.863 151.977 403.244C152.127 402.873 151.896 402.584 151.607 402.491C151.33 402.376 150.995 402.445 150.879 402.816C150.763 403.117 150.659 403.429 150.555 403.73C148.879 407.967 145.227 410.63 142.638 414.323C140.441 417.46 138.997 421.072 138.153 424.8C136.384 432.672 137.032 441.285 138.869 449.088C137.621 456.069 136.373 463.061 135.113 470.054ZM146.556 455.965C153.63 449.841 162.669 445.441 170.887 441.077C168.864 442.848 166.98 444.805 164.946 446.854C159.883 451.947 153.642 455.004 146.556 455.965ZM175.857 437.465C175.684 437.569 175.522 437.673 175.349 437.777C175.21 437.592 174.979 437.5 174.713 437.65C166.021 442.547 155.699 447.132 147.492 453.649C154.023 444.26 164.426 438.264 175.857 437.465ZM149.041 424.013C147.816 432.186 144.591 439.815 140.326 446.831C141.794 434.686 145.007 423.144 149.376 411.776C149.295 415.851 149.642 420.007 149.041 424.013ZM146.221 411.845C147.458 410.468 148.637 409.183 149.642 407.794C149.631 407.84 149.631 407.898 149.619 407.944C149.596 407.979 149.573 408.002 149.55 408.048C144.637 420.192 141.008 432.441 139.309 445.395C138.037 438.403 137.806 431.017 139.551 424.175C140.765 419.463 142.984 415.446 146.221 411.845Z" fill="#B3BB78"/>
</g>
<defs>
<clipPath id="clip0_41_294">
<rect width="204" height="859" fill="white" transform="translate(0.5)"/>
</clipPath>
</defs>
</svg>
